<svg width="56" height="56" viewBox="0 0 56 56" fill="none" xmlns="http://www.w3.org/2000/svg">
<rect y="5" width="51" height="51" rx="15" fill="#EA5D5F"/>
<path d="M15.8333 36.5417L14.4917 35.8708C14.2592 36.3358 14.284 36.888 14.5573 37.3303C14.8306 37.7725 15.3134 38.0417 15.8333 38.0417V36.5417ZM35.1666 36.5417V38.0417C35.6865 38.0417 36.1693 37.7725 36.4426 37.3303C36.7159 36.888 36.7408 36.3358 36.5083 35.8708L35.1666 36.5417ZM19.75 26.875C19.75 23.6994 22.3243 21.125 25.5 21.125V18.125C20.6675 18.125 16.75 22.0425 16.75 26.875H19.75ZM25.5 21.125C28.6756 21.125 31.25 23.6994 31.25 26.875H34.25C34.25 22.0425 30.3325 18.125 25.5 18.125V21.125ZM16.75 26.875C16.75 29.0648 16.1978 31.3089 15.6186 33.0465C15.332 33.9063 15.0456 34.6222 14.8322 35.1201C14.7257 35.3686 14.6378 35.5618 14.5779 35.6902C14.5479 35.7544 14.525 35.8023 14.5102 35.8329C14.5028 35.8481 14.4975 35.859 14.4944 35.8654C14.4928 35.8686 14.4918 35.8706 14.4913 35.8716C14.4911 35.872 14.491 35.8722 14.4911 35.8721C14.4911 35.872 14.4912 35.8719 14.4913 35.8717C14.4913 35.8716 14.4914 35.8714 14.4914 35.8713C14.4916 35.8711 14.4917 35.8708 15.8333 36.5417C17.175 37.2125 17.1751 37.2122 17.1752 37.2119C17.1753 37.2118 17.1755 37.2115 17.1756 37.2112C17.1758 37.2107 17.1761 37.2101 17.1764 37.2095C17.1771 37.2082 17.1779 37.2066 17.1788 37.2047C17.1807 37.201 17.1831 37.196 17.1861 37.1899C17.1921 37.1777 17.2004 37.1609 17.2107 37.1395C17.2313 37.0969 17.2603 37.0363 17.2964 36.9589C17.3687 36.8041 17.4696 36.5819 17.5896 36.3018C17.8294 35.7424 18.1471 34.9478 18.4647 33.9952C19.0938 32.1078 19.75 29.5185 19.75 26.875H16.75ZM15.8333 38.0417H35.1666V35.0417H15.8333V38.0417ZM35.1666 36.5417C36.5083 35.8708 36.5084 35.8711 36.5085 35.8713C36.5085 35.8714 36.5086 35.8716 36.5087 35.8717C36.5088 35.8719 36.5089 35.872 36.5089 35.8721C36.509 35.8722 36.5089 35.872 36.5086 35.8716C36.5082 35.8706 36.5072 35.8686 36.5056 35.8654C36.5025 35.859 36.4971 35.8481 36.4897 35.8329C36.475 35.8023 36.452 35.7544 36.4221 35.6902C36.3621 35.5618 36.2743 35.3686 36.1678 35.1201C35.9544 34.6222 35.6679 33.9063 35.3813 33.0465C34.8021 31.3089 34.25 29.0648 34.25 26.875H31.25C31.25 29.5185 31.9062 32.1078 32.5353 33.9952C32.8528 34.9478 33.1706 35.7424 33.4103 36.3018C33.5304 36.5819 33.6313 36.8041 33.7035 36.9589C33.7397 37.0363 33.7686 37.0969 33.7893 37.1395C33.7996 37.1609 33.8078 37.1777 33.8138 37.1899C33.8168 37.196 33.8193 37.201 33.8211 37.2047C33.8221 37.2066 33.8229 37.2082 33.8235 37.2095C33.8238 37.2101 33.8241 37.2107 33.8244 37.2112C33.8245 37.2115 33.8247 37.2118 33.8247 37.2119C33.8249 37.2122 33.825 37.2125 35.1666 36.5417ZM27.625 37.75C27.625 38.9236 26.6736 39.875 25.5 39.875V42.875C28.3304 42.875 30.625 40.5805 30.625 37.75H27.625ZM25.5 39.875C24.3264 39.875 23.375 38.9236 23.375 37.75H20.375C20.375 40.5805 22.6695 42.875 25.5 42.875V39.875ZM23.375 37.75V36.5417H20.375V37.75H23.375ZM30.625 37.75V36.5417H27.625V37.75H30.625Z" fill="white"/>
<circle cx="47" cy="9" r="7.5" fill="#D92B21" stroke="white" stroke-width="3"/>
</svg>
