<svg width="24" height="24" viewBox="0 0 24 24" fill="none" xmlns="http://www.w3.org/2000/svg">
<path d="M4 17L2.65836 16.3292C2.42587 16.7942 2.45071 17.3464 2.72402 17.7886C2.99733 18.2308 3.48013 18.5 4 18.5V17ZM20 17V18.5C20.5199 18.5 21.0027 18.2308 21.276 17.7886C21.5493 17.3464 21.5741 16.7942 21.3416 16.3292L20 17ZM7.5 9C7.5 6.51472 9.51472 4.5 12 4.5V1.5C7.85786 1.5 4.5 4.85786 4.5 9H7.5ZM12 4.5C14.4853 4.5 16.5 6.51472 16.5 9H19.5C19.5 4.85786 16.1421 1.5 12 1.5V4.5ZM4.5 9C4.5 10.7731 4.05202 12.6005 3.57698 14.0257C3.34245 14.7292 3.10808 15.3149 2.93378 15.7216C2.84679 15.9246 2.77521 16.082 2.72666 16.186C2.7024 16.238 2.68394 16.2766 2.67222 16.3008C2.66637 16.3129 2.6622 16.3214 2.65985 16.3261C2.65868 16.3285 2.65795 16.33 2.6577 16.3305C2.65757 16.3308 2.65756 16.3308 2.65767 16.3306C2.65773 16.3304 2.65781 16.3303 2.65793 16.33C2.65798 16.3299 2.65809 16.3297 2.65812 16.3297C2.65824 16.3294 2.65836 16.3292 4 17C5.34164 17.6708 5.34178 17.6705 5.34193 17.6702C5.34198 17.6701 5.34214 17.6698 5.34226 17.6696C5.34249 17.6691 5.34276 17.6686 5.34306 17.668C5.34365 17.6668 5.34437 17.6654 5.3452 17.6637C5.34687 17.6603 5.34902 17.656 5.35162 17.6507C5.35684 17.6401 5.36391 17.6256 5.3727 17.6074C5.39028 17.5711 5.41479 17.5198 5.44521 17.4546C5.50604 17.3243 5.59071 17.1379 5.69122 16.9034C5.89192 16.4351 6.15755 15.7708 6.42302 14.9743C6.94798 13.3995 7.5 11.2269 7.5 9H4.5ZM4 18.5H20V15.5H4V18.5ZM20 17C21.3416 16.3292 21.3418 16.3294 21.3419 16.3297C21.3419 16.3297 21.342 16.3299 21.3421 16.33C21.3422 16.3303 21.3423 16.3304 21.3423 16.3306C21.3424 16.3308 21.3424 16.3308 21.3423 16.3305C21.342 16.33 21.3413 16.3285 21.3401 16.3261C21.3378 16.3214 21.3336 16.3129 21.3278 16.3008C21.3161 16.2766 21.2976 16.238 21.2733 16.186C21.2248 16.082 21.1532 15.9246 21.0662 15.7216C20.8919 15.3149 20.6576 14.7292 20.423 14.0257C19.948 12.6005 19.5 10.7731 19.5 9H16.5C16.5 11.2269 17.052 13.3995 17.577 14.9743C17.8424 15.7708 18.1081 16.4351 18.3088 16.9034C18.4093 17.1379 18.494 17.3243 18.5548 17.4546C18.5852 17.5198 18.6097 17.5711 18.6273 17.6074C18.6361 17.6256 18.6432 17.6401 18.6484 17.6507C18.651 17.656 18.6531 17.6603 18.6548 17.6637C18.6556 17.6654 18.6563 17.6668 18.6569 17.668C18.6572 17.6686 18.6575 17.6691 18.6577 17.6696C18.6579 17.6698 18.658 17.6701 18.6581 17.6702C18.6582 17.6705 18.6584 17.6708 20 17ZM13.5 18C13.5 18.8284 12.8284 19.5 12 19.5V22.5C14.4853 22.5 16.5 20.4853 16.5 18H13.5ZM12 19.5C11.1716 19.5 10.5 18.8284 10.5 18H7.5C7.5 20.4853 9.51472 22.5 12 22.5V19.5ZM10.5 18V17H7.5V18H10.5ZM16.5 18V17H13.5V18H16.5Z" fill="#212529"/>
</svg>
