<svg width="24" height="24" viewBox="0 0 24 24" fill="none" xmlns="http://www.w3.org/2000/svg">
<path d="M18.9393 21.0607C19.5251 21.6464 20.4749 21.6464 21.0607 21.0607C21.6464 20.4749 21.6464 19.5251 21.0607 18.9393L18.9393 21.0607ZM16.5 10.5C16.5 13.8137 13.8137 16.5 10.5 16.5V19.5C15.4706 19.5 19.5 15.4706 19.5 10.5H16.5ZM10.5 16.5C7.18629 16.5 4.5 13.8137 4.5 10.5H1.5C1.5 15.4706 5.52944 19.5 10.5 19.5V16.5ZM4.5 10.5C4.5 7.18629 7.18629 4.5 10.5 4.5V1.5C5.52944 1.5 1.5 5.52944 1.5 10.5H4.5ZM10.5 4.5C13.8137 4.5 16.5 7.18629 16.5 10.5H19.5C19.5 5.52944 15.4706 1.5 10.5 1.5V4.5ZM21.0607 18.9393L16.8731 14.7518L14.7518 16.8731L18.9393 21.0607L21.0607 18.9393Z" fill="#212529"/>
</svg>
