<svg width="47" height="47" viewBox="0 0 47 47" fill="none" xmlns="http://www.w3.org/2000/svg">
<path d="M40 23.4988C40 12.4531 31.0457 3.49883 20 3.49883C8.9543 3.49883 0 12.4531 0 23.4988C0 33.4814 7.31371 41.7555 16.875 43.2559V29.2801H11.7969V23.4988H16.875V19.0926C16.875 14.0801 19.8609 11.3113 24.4293 11.3113C26.6175 11.3113 28.9062 11.702 28.9062 11.702V16.6238H26.3843C23.8998 16.6238 23.125 18.1655 23.125 19.7471V23.4988H28.6719L27.7852 29.2801H23.125V43.2559C32.6863 41.7555 40 33.4814 40 23.4988Z" fill="#1877F2"/>
<path d="M27.7852 29.2812L28.6719 23.5H23.125V19.7483C23.125 18.1667 23.8998 16.625 26.3843 16.625H28.9062V11.7031C28.9062 11.7031 26.6175 11.3125 24.4293 11.3125C19.8609 11.3125 16.875 14.0812 16.875 19.0938V23.5H11.7969V29.2812H16.875V43.257C17.8932 43.4168 18.9369 43.5 20 43.5C21.0631 43.5 22.1068 43.4168 23.125 43.257V29.2812H27.7852Z" fill="white"/>
</svg>
