<svg width="47" height="49" viewBox="0 0 47 49" fill="none" xmlns="http://www.w3.org/2000/svg">
<path d="M40 24.8791C40 23.1698 39.8639 21.9224 39.5692 20.6289H20.4082V28.344H31.6553C31.4286 30.2613 30.2041 33.1487 27.483 35.0889L27.4448 35.3472L33.5032 40.1282L33.9229 40.1709C37.7777 36.5443 40 31.2083 40 24.8791Z" fill="#4285F4"/>
<path d="M20.4081 45.205C25.9182 45.205 30.544 43.357 33.9228 40.1694L27.4829 35.0874C25.7596 36.3117 23.4466 37.1663 20.4081 37.1663C15.0113 37.1663 10.4308 33.5399 8.79804 28.5273L8.5587 28.548L2.25914 33.5144L2.17676 33.7477C5.53273 40.5388 12.4262 45.205 20.4081 45.205Z" fill="#34A853"/>
<path d="M8.7981 28.5274C8.36727 27.2339 8.11793 25.8478 8.11793 24.4157C8.11793 22.9835 8.36727 21.5976 8.77543 20.304L8.76402 20.0286L2.38551 14.9824L2.17682 15.0835C0.793659 17.9017 0 21.0664 0 24.4157C0 27.7651 0.793659 30.9296 2.17682 33.7478L8.7981 28.5274Z" fill="#FBBC05"/>
<path d="M20.4081 11.6654C24.2402 11.6654 26.8252 13.3517 28.2992 14.7608L34.0588 9.03218C30.5215 5.6828 25.9182 3.62695 20.4081 3.62695C12.4262 3.62695 5.53273 8.29297 2.17676 15.0841L8.77537 20.3046C10.4308 15.2921 15.0113 11.6654 20.4081 11.6654Z" fill="#EB4335"/>
</svg>
