<svg width="288" height="94" viewBox="0 0 288 94" fill="none" xmlns="http://www.w3.org/2000/svg">
<path fill-rule="evenodd" clip-rule="evenodd" d="M82.8635 77.3855C89.8138 69.192 94.0059 58.5855 94.0059 47C94.0059 21.0426 72.962 0 47.003 0C21.0439 0 0 21.0426 0 47C0 72.9574 21.0439 94 47.003 94C55.4363 94 63.3509 91.7791 70.1938 87.8904L83.4698 93.3756C84.1813 93.6695 84.9442 93.0831 84.843 92.32L82.8635 77.3855ZM47.003 80.5714C65.5452 80.5714 80.5766 65.541 80.5766 47C80.5766 28.459 65.5452 13.4286 47.003 13.4286C28.4609 13.4286 13.4295 28.459 13.4295 47C13.4295 52.4013 14.7051 57.5046 16.9715 62.0252L13.15 73.0721C12.8984 73.7996 13.5287 74.5267 14.2845 74.3809L24.9589 72.3218C30.8568 77.4599 38.5665 80.5714 47.003 80.5714Z" fill="#D92B21"/>
<path d="M146.505 31.0345V35.4985H137.625V64.3945H132.153V35.4985H123.225V31.0345H146.505ZM152.973 51.0505C152.973 48.3945 153.517 46.0425 154.605 43.9945C155.725 41.9465 157.229 40.3625 159.117 39.2425C161.037 38.0905 163.149 37.5145 165.453 37.5145C167.533 37.5145 169.341 37.9305 170.877 38.7625C172.445 39.5625 173.693 40.5705 174.621 41.7865V37.9465H180.141V64.3945H174.621V60.4585C173.693 61.7065 172.429 62.7465 170.829 63.5785C169.229 64.4105 167.405 64.8265 165.357 64.8265C163.085 64.8265 161.005 64.2505 159.117 63.0985C157.229 61.9145 155.725 60.2825 154.605 58.2025C153.517 56.0905 152.973 53.7065 152.973 51.0505ZM174.621 51.1465C174.621 49.3225 174.237 47.7385 173.469 46.3945C172.733 45.0505 171.757 44.0265 170.541 43.3225C169.325 42.6185 168.013 42.2665 166.605 42.2665C165.197 42.2665 163.885 42.6185 162.669 43.3225C161.453 43.9945 160.461 45.0025 159.693 46.3465C158.957 47.6585 158.589 49.2265 158.589 51.0505C158.589 52.8745 158.957 54.4745 159.693 55.8505C160.461 57.2265 161.453 58.2825 162.669 59.0185C163.917 59.7225 165.229 60.0745 166.605 60.0745C168.013 60.0745 169.325 59.7225 170.541 59.0185C171.757 58.3145 172.733 57.2905 173.469 55.9465C174.237 54.5705 174.621 52.9705 174.621 51.1465ZM195.55 28.8745V64.3945H190.078V28.8745H195.55ZM215.948 51.1945L228.14 64.3945H220.748L210.956 53.0185V64.3945H205.484V28.8745H210.956V49.5145L220.556 37.9465H228.14L215.948 51.1945ZM237.596 34.4425C236.604 34.4425 235.772 34.1065 235.1 33.4345C234.428 32.7625 234.092 31.9305 234.092 30.9385C234.092 29.9465 234.428 29.1145 235.1 28.4425C235.772 27.7705 236.604 27.4345 237.596 27.4345C238.556 27.4345 239.372 27.7705 240.044 28.4425C240.716 29.1145 241.052 29.9465 241.052 30.9385C241.052 31.9305 240.716 32.7625 240.044 33.4345C239.372 34.1065 238.556 34.4425 237.596 34.4425ZM240.284 37.9465V64.3945H234.812V37.9465H240.284ZM256.603 42.4105V57.0505C256.603 58.0425 256.827 58.7625 257.275 59.2105C257.755 59.6265 258.555 59.8345 259.675 59.8345H263.035V64.3945H258.715C256.251 64.3945 254.363 63.8185 253.051 62.6665C251.739 61.5145 251.083 59.6425 251.083 57.0505V42.4105H247.963V37.9465H251.083V31.3705H256.603V37.9465H263.035V42.4105H256.603ZM277.692 31.0345L277.068 54.3145H272.508L271.884 31.0345H277.692ZM274.956 64.7305C273.964 64.7305 273.132 64.3945 272.46 63.7225C271.788 63.0505 271.452 62.2185 271.452 61.2265C271.452 60.2345 271.788 59.4025 272.46 58.7305C273.132 58.0585 273.964 57.7225 274.956 57.7225C275.916 57.7225 276.732 58.0585 277.404 58.7305C278.076 59.4025 278.412 60.2345 278.412 61.2265C278.412 62.2185 278.076 63.0505 277.404 63.7225C276.732 64.3945 275.916 64.7305 274.956 64.7305Z" fill="#212529"/>
</svg>
