<svg width="50" height="50" viewBox="0 0 50 50" fill="none" xmlns="http://www.w3.org/2000/svg">
<path fill-rule="evenodd" clip-rule="evenodd" d="M44.0736 41.1624C47.7703 36.8042 50 31.1625 50 25C50 11.1929 38.8071 0 25 0C11.1929 0 0 11.1929 0 25C0 38.8071 11.1929 50 25 50C29.4855 50 33.6952 48.8187 37.3347 46.7502L43.6467 49.3583C44.3582 49.6522 45.1211 49.0658 45.0199 48.3027L44.0736 41.1624ZM25.0001 42.8571C34.8623 42.8571 42.8572 34.8622 42.8572 25C42.8572 15.1378 34.8623 7.14285 25.0001 7.14285C15.1378 7.14285 7.14291 15.1378 7.14291 25C7.14291 27.873 7.82138 30.5875 9.02684 32.9921L7.25926 38.102C7.00761 38.8295 7.63787 39.5566 8.39373 39.4108L13.2752 38.4691C16.4122 41.2021 20.5128 42.8571 25.0001 42.8571Z" fill="white"/>
</svg>
