<svg width="24" height="24" viewBox="0 0 24 24" fill="none" xmlns="http://www.w3.org/2000/svg">
<path d="M4 16L3.11612 15.1161L2.75 15.4822V16H4ZM17 3L17.8839 2.11612C17.3957 1.62796 16.6043 1.62796 16.1161 2.11612L17 3ZM21 7L21.8839 7.88388C22.372 7.39573 22.372 6.60427 21.8839 6.11612L21 7ZM8 20V21.25H8.51777L8.88388 20.8839L8 20ZM4 20H2.75C2.75 20.6904 3.30964 21.25 4 21.25V20ZM4.88388 16.8839L17.8839 3.88388L16.1161 2.11612L3.11612 15.1161L4.88388 16.8839ZM16.1161 3.88388L20.1161 7.88388L21.8839 6.11612L17.8839 2.11612L16.1161 3.88388ZM20.1161 6.11612L7.11612 19.1161L8.88388 20.8839L21.8839 7.88388L20.1161 6.11612ZM8 18.75H4V21.25H8V18.75ZM5.25 20V16H2.75V20H5.25ZM13.1161 6.88388L17.1161 10.8839L18.8839 9.11612L14.8839 5.11612L13.1161 6.88388Z" fill="#D92B21"/>
</svg>
