<svg width="5" height="13" viewBox="0 0 5 13" fill="none" xmlns="http://www.w3.org/2000/svg">
<path d="M2.50004 7.09211C2.82716 7.09211 3.09236 6.82692 3.09236 6.49979C3.09236 6.17266 2.82716 5.90747 2.50004 5.90747C2.17291 5.90747 1.90771 6.17266 1.90771 6.49979C1.90771 6.82692 2.17291 7.09211 2.50004 7.09211Z" fill="#EA5D5F"/>
<path d="M2.50004 2.94587C2.82716 2.94587 3.09236 2.68068 3.09236 2.35355C3.09236 2.02642 2.82716 1.76123 2.50004 1.76123C2.17291 1.76123 1.90771 2.02642 1.90771 2.35355C1.90771 2.68068 2.17291 2.94587 2.50004 2.94587Z" fill="#EA5D5F"/>
<path d="M2.50004 11.2384C2.82716 11.2384 3.09236 10.9732 3.09236 10.646C3.09236 10.3189 2.82716 10.0537 2.50004 10.0537C2.17291 10.0537 1.90771 10.3189 1.90771 10.646C1.90771 10.9732 2.17291 11.2384 2.50004 11.2384Z" fill="#EA5D5F"/>
<path d="M2.50004 7.09211C2.82716 7.09211 3.09236 6.82692 3.09236 6.49979C3.09236 6.17266 2.82716 5.90747 2.50004 5.90747C2.17291 5.90747 1.90771 6.17266 1.90771 6.49979C1.90771 6.82692 2.17291 7.09211 2.50004 7.09211Z" stroke="#EA5D5F" stroke-width="2" stroke-linecap="round" stroke-linejoin="round"/>
<path d="M2.50004 2.94587C2.82716 2.94587 3.09236 2.68068 3.09236 2.35355C3.09236 2.02642 2.82716 1.76123 2.50004 1.76123C2.17291 1.76123 1.90771 2.02642 1.90771 2.35355C1.90771 2.68068 2.17291 2.94587 2.50004 2.94587Z" stroke="#EA5D5F" stroke-width="2" stroke-linecap="round" stroke-linejoin="round"/>
<path d="M2.50004 11.2384C2.82716 11.2384 3.09236 10.9732 3.09236 10.646C3.09236 10.3189 2.82716 10.0537 2.50004 10.0537C2.17291 10.0537 1.90771 10.3189 1.90771 10.646C1.90771 10.9732 2.17291 11.2384 2.50004 11.2384Z" stroke="#EA5D5F" stroke-width="2" stroke-linecap="round" stroke-linejoin="round"/>
</svg>
